<svg xmlns="http://www.w3.org/2000/svg" viewBox="0 0 150 150" width="100%" height="100%">
  <defs>
    <linearGradient id="bgGrad" x1="0%" y1="0%" x2="100%" y2="100%">
      <stop offset="0%" stop-color="#2563EB" />
      <stop offset="100%" stop-color="#7C3AED" />
    </linearGradient>
  </defs>

  <!-- 圆形背景 -->
  <circle cx="75" cy="75" r="72" fill="url(#bgGrad)" />

  <!-- 三条波浪线 -->
  <path d="M20,60 C35,45 50,75 65,60 C80,45 95,75 110,60 C125,45 140,75 155,60"
        fill="none" stroke="white" stroke-width="3" opacity="0.2" stroke-linecap="round"/>
  <path d="M20,75 C35,60 50,90 65,75 C80,60 95,90 110,75 C125,60 140,90 155,75"
        fill="none" stroke="white" stroke-width="4" opacity="0.5" stroke-linecap="round"/>
  <path d="M20,90 C35,75 50,105 65,90 C80,75 95,105 110,90 C125,75 140,105 155,90"
        fill="none" stroke="white" stroke-width="3" opacity="0.2" stroke-linecap="round"/>

  <!-- 对勾 -->
  <path d="M48,72 L66,90 L102,52"
        fill="none" stroke="white" stroke-width="8" stroke-linecap="round" stroke-linejoin="round"/>
</svg>
